<svg version="1.1" viewBox="0.0 0.0 273.9238845144357 270.56430446194224" fill="none" stroke="none"
     stroke-linecap="square" stroke-miterlimit="10" xmlns:xlink="http://www.w3.org/1999/xlink"
     xmlns="http://www.w3.org/2000/svg">
    <clipPath id="p.0">
        <path d="m0 0l273.9239 0l0 270.5643l-273.9239 0l0 -270.5643z" clip-rule="nonzero"/>
    </clipPath>
    <g clip-path="url(#p.0)">
        <path fill="#000000" fill-opacity="0.0" d="m0 0l273.9239 0l0 270.5643l-273.9239 0z" fill-rule="evenodd"/>
        <path fill="#000000" d="m29.797907 0.81496066l214.32808 134.4672l-214.32808 134.46718z" fill-rule="evenodd"/>
        <path stroke="#000000" stroke-width="1.0" stroke-linejoin="round" stroke-linecap="butt"
              d="m29.797907 0.81496066l214.32808 134.4672l-214.32808 134.46718z" fill-rule="evenodd"/>
        <path fill="#ffffff"
              d="m131.87215 88.458595l0 0c2.655426 -4.288826 8.284851 -5.612961 12.573669 -2.9575424l0 0c2.0595703 1.275177 3.5282135 3.3162842 4.0828705 5.674309c0.5546417 2.358017 0.14985657 4.8397903 -1.1253204 6.8993607l0 0c-2.655426 4.288826 -8.284851 5.612961 -12.573669 2.9575424l0 0c-4.2888336 -2.6554184 -5.612961 -8.284843 -2.95755 -12.573669z"
              fill-rule="evenodd"/>
        <path stroke="#000000" stroke-width="1.0" stroke-linejoin="round" stroke-linecap="butt"
              d="m131.87215 88.458595l0 0c2.655426 -4.288826 8.284851 -5.612961 12.573669 -2.9575424l0 0c2.0595703 1.275177 3.5282135 3.3162842 4.0828705 5.674309c0.5546417 2.358017 0.14985657 4.8397903 -1.1253204 6.8993607l0 0c-2.655426 4.288826 -8.284851 5.612961 -12.573669 2.9575424l0 0c-4.2888336 -2.6554184 -5.612961 -8.284843 -2.95755 -12.573669z"
              fill-rule="evenodd"/>
        <path fill="#ffffff"
              d="m153.53593 101.87324l0 0c2.655426 -4.288826 8.284851 -5.612961 12.573669 -2.9575424l0 0c2.0595703 1.275177 3.5282288 3.3162842 4.0828705 5.674309c0.5546417 2.358017 0.14985657 4.839798 -1.1253204 6.8993607l0 0c-2.655426 4.288826 -8.284851 5.612961 -12.573669 2.9575424l0 0c-4.2888336 -2.6554184 -5.612961 -8.284843 -2.95755 -12.573669z"
              fill-rule="evenodd"/>
        <path stroke="#000000" stroke-width="1.0" stroke-linejoin="round" stroke-linecap="butt"
              d="m153.53593 101.87324l0 0c2.655426 -4.288826 8.284851 -5.612961 12.573669 -2.9575424l0 0c2.0595703 1.275177 3.5282288 3.3162842 4.0828705 5.674309c0.5546417 2.358017 0.14985657 4.839798 -1.1253204 6.8993607l0 0c-2.655426 4.288826 -8.284851 5.612961 -12.573669 2.9575424l0 0c-4.2888336 -2.6554184 -5.612961 -8.284843 -2.95755 -12.573669z"
              fill-rule="evenodd"/>
        <path fill="#ffffff"
              d="m175.20222 115.28635l0 0c2.655426 -4.288826 8.284851 -5.6129684 12.573669 -2.95755l0 0c2.0595703 1.275177 3.5282135 3.3162918 4.0828705 5.674309c0.5546417 2.3580246 0.14985657 4.839798 -1.1253204 6.8993607l0 0c-2.655426 4.2888336 -8.284851 5.612961 -12.573669 2.95755l0 0c-4.2888336 -2.655426 -5.612976 -8.284843 -2.95755 -12.573669z"
              fill-rule="evenodd"/>
        <path stroke="#000000" stroke-width="1.0" stroke-linejoin="round" stroke-linecap="butt"
              d="m175.20222 115.28635l0 0c2.655426 -4.288826 8.284851 -5.6129684 12.573669 -2.95755l0 0c2.0595703 1.275177 3.5282135 3.3162918 4.0828705 5.674309c0.5546417 2.3580246 0.14985657 4.839798 -1.1253204 6.8993607l0 0c-2.655426 4.2888336 -8.284851 5.612961 -12.573669 2.95755l0 0c-4.2888336 -2.655426 -5.612976 -8.284843 -2.95755 -12.573669z"
              fill-rule="evenodd"/>
        <path fill="#ffffff"
              d="m196.86824 128.70236l0 0c2.655426 -4.2888184 8.284851 -5.612953 12.573669 -2.9575348l0 0c2.0595703 1.275177 3.5282288 3.3162842 4.0828705 5.674301c0.5546417 2.3580322 0.14985657 4.839798 -1.1253204 6.8993683l0 0c-2.655426 4.2888184 -8.284851 5.612961 -12.573669 2.9575348l0 0c-4.2888336 -2.6554108 -5.612961 -8.284836 -2.95755 -12.573669z"
              fill-rule="evenodd"/>
        <path stroke="#000000" stroke-width="1.0" stroke-linejoin="round" stroke-linecap="butt"
              d="m196.86824 128.70236l0 0c2.655426 -4.2888184 8.284851 -5.612953 12.573669 -2.9575348l0 0c2.0595703 1.275177 3.5282288 3.3162842 4.0828705 5.674301c0.5546417 2.3580322 0.14985657 4.839798 -1.1253204 6.8993683l0 0c-2.655426 4.2888184 -8.284851 5.612961 -12.573669 2.9575348l0 0c-4.2888336 -2.6554108 -5.612961 -8.284836 -2.95755 -12.573669z"
              fill-rule="evenodd"/>
        <path fill="#ffffff"
              d="m110.20544 75.043686l0 0c2.655426 -4.288826 8.284843 -5.612961 12.573669 -2.9575424l0 0c2.0595703 1.275177 3.5282211 3.3162842 4.082863 5.674309c0.55464935 2.358017 0.1498642 4.8397903 -1.1253204 6.8993607l0 0c-2.6554184 4.288826 -8.284843 5.612961 -12.573669 2.9575424l0 0c-4.2888184 -2.6554184 -5.612961 -8.284843 -2.9575424 -12.573669z"
              fill-rule="evenodd"/>
        <path stroke="#000000" stroke-width="1.0" stroke-linejoin="round" stroke-linecap="butt"
              d="m110.20544 75.043686l0 0c2.655426 -4.288826 8.284843 -5.612961 12.573669 -2.9575424l0 0c2.0595703 1.275177 3.5282211 3.3162842 4.082863 5.674309c0.55464935 2.358017 0.1498642 4.8397903 -1.1253204 6.8993607l0 0c-2.6554184 4.288826 -8.284843 5.612961 -12.573669 2.9575424l0 0c-4.2888184 -2.6554184 -5.612961 -8.284843 -2.9575424 -12.573669z"
              fill-rule="evenodd"/>
        <path fill="#ffffff"
              d="m88.54027 61.63127l0 0c2.6554184 -4.288826 8.284843 -5.6129646 12.573669 -2.9575424l0 0c2.0595703 1.275177 3.5282211 3.316288 4.082863 5.674309c0.55464935 2.358017 0.14985657 4.8397903 -1.1253204 6.8993607l0 0c-2.6554184 4.288826 -8.284843 5.612961 -12.573669 2.9575424l0 0c-4.288826 -2.6554184 -5.612961 -8.284843 -2.9575424 -12.573669z"
              fill-rule="evenodd"/>
        <path stroke="#000000" stroke-width="1.0" stroke-linejoin="round" stroke-linecap="butt"
              d="m88.54027 61.63127l0 0c2.6554184 -4.288826 8.284843 -5.6129646 12.573669 -2.9575424l0 0c2.0595703 1.275177 3.5282211 3.316288 4.082863 5.674309c0.55464935 2.358017 0.14985657 4.8397903 -1.1253204 6.8993607l0 0c-2.6554184 4.288826 -8.284843 5.612961 -12.573669 2.9575424l0 0c-4.288826 -2.6554184 -5.612961 -8.284843 -2.9575424 -12.573669z"
              fill-rule="evenodd"/>
        <path fill="#ffffff"
              d="m66.87425 48.215244l0 0c2.6554184 -4.288826 8.284843 -5.612961 12.573669 -2.9575424l0 0c2.0595627 1.275177 3.5282135 3.316288 4.082863 5.674309c0.5546417 2.3580208 0.14985657 4.839794 -1.1253204 6.8993607l0 0c-2.655426 4.288826 -8.284843 5.6129646 -12.573669 2.9575424l0 0c-4.288826 -2.6554184 -5.6129684 -8.284843 -2.9575424 -12.573669z"
              fill-rule="evenodd"/>
        <path stroke="#000000" stroke-width="1.0" stroke-linejoin="round" stroke-linecap="butt"
              d="m66.87425 48.215244l0 0c2.6554184 -4.288826 8.284843 -5.612961 12.573669 -2.9575424l0 0c2.0595627 1.275177 3.5282135 3.316288 4.082863 5.674309c0.5546417 2.3580208 0.14985657 4.839794 -1.1253204 6.8993607l0 0c-2.655426 4.288826 -8.284843 5.6129646 -12.573669 2.9575424l0 0c-4.288826 -2.6554184 -5.6129684 -8.284843 -2.9575424 -12.573669z"
              fill-rule="evenodd"/>
        <path fill="#ffffff"
              d="m45.20908 34.802834l0 0c2.6554184 -4.288826 8.284843 -5.6129646 12.573669 -2.9575443l0 0c2.0595665 1.2751789 3.5282173 3.316286 4.082863 5.674307c0.55464554 2.3580208 0.14985657 4.839794 -1.1253204 6.8993645l0 0c-2.6554184 4.288826 -8.284843 5.612961 -12.573669 2.9575424l0 0c-4.288826 -2.6554222 -5.6129646 -8.284843 -2.9575424 -12.573669z"
              fill-rule="evenodd"/>
        <path stroke="#000000" stroke-width="1.0" stroke-linejoin="round" stroke-linecap="butt"
              d="m45.20908 34.802834l0 0c2.6554184 -4.288826 8.284843 -5.6129646 12.573669 -2.9575443l0 0c2.0595665 1.2751789 3.5282173 3.316286 4.082863 5.674307c0.55464554 2.3580208 0.14985657 4.839794 -1.1253204 6.8993645l0 0c-2.6554184 4.288826 -8.284843 5.612961 -12.573669 2.9575424l0 0c-4.288826 -2.6554222 -5.6129646 -8.284843 -2.9575424 -12.573669z"
              fill-rule="evenodd"/>
        <path fill="#ffffff"
              d="m131.85262 180.14012l0 0c-2.697281 -4.2631073 -1.427948 -9.905609 2.8351593 -12.602905l0 0c2.0472107 -1.2952881 4.525116 -1.7242584 6.888626 -1.1925659c2.3634949 0.5316925 4.418976 1.9804993 5.714264 4.02771l0 0c2.6972961 4.2631073 1.427948 9.905609 -2.835144 12.602905l0 0c-4.2631073 2.697281 -9.905609 1.427948 -12.602905 -2.835144z"
              fill-rule="evenodd"/>
        <path stroke="#000000" stroke-width="1.0" stroke-linejoin="round" stroke-linecap="butt"
              d="m131.85262 180.14012l0 0c-2.697281 -4.2631073 -1.427948 -9.905609 2.8351593 -12.602905l0 0c2.0472107 -1.2952881 4.525116 -1.7242584 6.888626 -1.1925659c2.3634949 0.5316925 4.418976 1.9804993 5.714264 4.02771l0 0c2.6972961 4.2631073 1.427948 9.905609 -2.835144 12.602905l0 0c-4.2631073 2.697281 -9.905609 1.427948 -12.602905 -2.835144z"
              fill-rule="evenodd"/>
        <path fill="#ffffff"
              d="m153.38785 166.51619l0 0c-2.6972961 -4.263092 -1.427948 -9.905594 2.835144 -12.60289l0 0c2.0472107 -1.2952881 4.525131 -1.7242584 6.888626 -1.1925659c2.3635101 0.5316925 4.418991 1.9804993 5.714279 4.02771l0 0c2.697281 4.2631073 1.427948 9.905609 -2.8351593 12.602905l0 0c-4.263092 2.697281 -9.905609 1.427948 -12.60289 -2.8351593z"
              fill-rule="evenodd"/>
        <path stroke="#000000" stroke-width="1.0" stroke-linejoin="round" stroke-linecap="butt"
              d="m153.38785 166.51619l0 0c-2.6972961 -4.263092 -1.427948 -9.905594 2.835144 -12.60289l0 0c2.0472107 -1.2952881 4.525131 -1.7242584 6.888626 -1.1925659c2.3635101 0.5316925 4.418991 1.9804993 5.714279 4.02771l0 0c2.697281 4.2631073 1.427948 9.905609 -2.8351593 12.602905l0 0c-4.263092 2.697281 -9.905609 1.427948 -12.60289 -2.8351593z"
              fill-rule="evenodd"/>
        <path fill="#ffffff"
              d="m174.92278 152.88936l0 0c-2.697281 -4.263092 -1.427948 -9.905609 2.835144 -12.60289l0 0c2.047226 -1.2952881 4.525131 -1.7242737 6.8886414 -1.1925812c2.3634949 0.5316925 4.418976 1.9805145 5.714264 4.027725l0 0c2.697281 4.263092 1.427948 9.905609 -2.835144 12.60289l0 0c-4.2631073 2.6972961 -9.905609 1.4279633 -12.602905 -2.835144z"
              fill-rule="evenodd"/>
        <path stroke="#000000" stroke-width="1.0" stroke-linejoin="round" stroke-linecap="butt"
              d="m174.92278 152.88936l0 0c-2.697281 -4.263092 -1.427948 -9.905609 2.835144 -12.60289l0 0c2.047226 -1.2952881 4.525131 -1.7242737 6.8886414 -1.1925812c2.3634949 0.5316925 4.418976 1.9805145 5.714264 4.027725l0 0c2.697281 4.263092 1.427948 9.905609 -2.835144 12.60289l0 0c-4.2631073 2.6972961 -9.905609 1.4279633 -12.602905 -2.835144z"
              fill-rule="evenodd"/>
        <path fill="#ffffff"
              d="m196.46022 139.26404l0 0c-2.6972961 -4.263092 -1.427948 -9.905609 2.835144 -12.602898l0 0c2.0472107 -1.2952805 4.525131 -1.724266 6.888626 -1.1925659c2.3635101 0.5316925 4.418991 1.9805069 5.714279 4.0277176l0 0c2.697281 4.263092 1.427948 9.905609 -2.8351593 12.60289l0 0c-4.263092 2.6972961 -9.905609 1.4279633 -12.60289 -2.835144z"
              fill-rule="evenodd"/>
        <path stroke="#000000" stroke-width="1.0" stroke-linejoin="round" stroke-linecap="butt"
              d="m196.46022 139.26404l0 0c-2.6972961 -4.263092 -1.427948 -9.905609 2.835144 -12.602898l0 0c2.0472107 -1.2952805 4.525131 -1.724266 6.888626 -1.1925659c2.3635101 0.5316925 4.418991 1.9805069 5.714279 4.0277176l0 0c2.697281 4.263092 1.427948 9.905609 -2.8351593 12.60289l0 0c-4.263092 2.6972961 -9.905609 1.4279633 -12.60289 -2.835144z"
              fill-rule="evenodd"/>
        <path fill="#ffffff"
              d="m110.31588 193.76654l0 0c-2.6972885 -4.263092 -1.427948 -9.905609 2.8351517 -12.60289l0 0c2.0472107 -1.2952881 4.5251236 -1.7242737 6.888626 -1.1925812c2.3635025 0.5316925 4.4189835 1.9805145 5.7142715 4.027725l0 0c2.6972885 4.2631073 1.427948 9.905609 -2.8351517 12.602905l0 0c-4.2630997 2.697281 -9.905609 1.427948 -12.602898 -2.8351593z"
              fill-rule="evenodd"/>
        <path stroke="#000000" stroke-width="1.0" stroke-linejoin="round" stroke-linecap="butt"
              d="m110.31588 193.76654l0 0c-2.6972885 -4.263092 -1.427948 -9.905609 2.8351517 -12.60289l0 0c2.0472107 -1.2952881 4.5251236 -1.7242737 6.888626 -1.1925812c2.3635025 0.5316925 4.4189835 1.9805145 5.7142715 4.027725l0 0c2.6972885 4.2631073 1.427948 9.905609 -2.8351517 12.602905l0 0c-4.2630997 2.697281 -9.905609 1.427948 -12.602898 -2.8351593z"
              fill-rule="evenodd"/>
        <path fill="#ffffff"
              d="m88.78206 207.39268l0 0c-2.6972885 -4.2631073 -1.427948 -9.905609 2.8351517 -12.602905l0 0c2.0472107 -1.2952881 4.5251236 -1.7242584 6.888626 -1.1925659c2.3635025 0.5316925 4.4189835 1.9804993 5.7142715 4.02771l0 0c2.6972885 4.2631073 1.427948 9.905609 -2.8351517 12.602905l0 0c-4.2630997 2.697281 -9.905609 1.427948 -12.602898 -2.835144z"
              fill-rule="evenodd"/>
        <path stroke="#000000" stroke-width="1.0" stroke-linejoin="round" stroke-linecap="butt"
              d="m88.78206 207.39268l0 0c-2.6972885 -4.2631073 -1.427948 -9.905609 2.8351517 -12.602905l0 0c2.0472107 -1.2952881 4.5251236 -1.7242584 6.888626 -1.1925659c2.3635025 0.5316925 4.4189835 1.9804993 5.7142715 4.02771l0 0c2.6972885 4.2631073 1.427948 9.905609 -2.8351517 12.602905l0 0c-4.2630997 2.697281 -9.905609 1.427948 -12.602898 -2.835144z"
              fill-rule="evenodd"/>
        <path fill="#ffffff"
              d="m67.24461 221.018l0 0c-2.6972885 -4.2631073 -1.427948 -9.905609 2.8351517 -12.602905l0 0c2.0472107 -1.2952881 4.5251236 -1.7242584 6.888626 -1.1925659c2.3635025 0.5316925 4.4189835 1.9804993 5.7142715 4.02771l0 0c2.6972885 4.2631073 1.427948 9.905609 -2.8351517 12.602905l0 0c-4.2630997 2.6972961 -9.905609 1.427948 -12.602898 -2.835144z"
              fill-rule="evenodd"/>
        <path stroke="#000000" stroke-width="1.0" stroke-linejoin="round" stroke-linecap="butt"
              d="m67.24461 221.018l0 0c-2.6972885 -4.2631073 -1.427948 -9.905609 2.8351517 -12.602905l0 0c2.0472107 -1.2952881 4.5251236 -1.7242584 6.888626 -1.1925659c2.3635025 0.5316925 4.4189835 1.9804993 5.7142715 4.02771l0 0c2.6972885 4.2631073 1.427948 9.905609 -2.8351517 12.602905l0 0c-4.2630997 2.6972961 -9.905609 1.427948 -12.602898 -2.835144z"
              fill-rule="evenodd"/>
        <path fill="#ffffff"
              d="m45.710793 234.64413l0 0c-2.6972885 -4.263092 -1.427948 -9.905609 2.8351517 -12.602905l0 0c2.0472107 -1.2952728 4.5251236 -1.7242584 6.888626 -1.1925659c2.3635025 0.5316925 4.4189873 1.9805145 5.7142715 4.027725l0 0c2.6972885 4.263092 1.427948 9.905609 -2.8351517 12.60289l0 0c-4.2630997 2.6972961 -9.905609 1.427948 -12.602898 -2.835144z"
              fill-rule="evenodd"/>
        <path stroke="#000000" stroke-width="1.0" stroke-linejoin="round" stroke-linecap="butt"
              d="m45.710793 234.64413l0 0c-2.6972885 -4.263092 -1.427948 -9.905609 2.8351517 -12.602905l0 0c2.0472107 -1.2952728 4.5251236 -1.7242584 6.888626 -1.1925659c2.3635025 0.5316925 4.4189873 1.9805145 5.7142715 4.027725l0 0c2.6972885 4.263092 1.427948 9.905609 -2.8351517 12.60289l0 0c-4.2630997 2.6972961 -9.905609 1.427948 -12.602898 -2.835144z"
              fill-rule="evenodd"/>
        <path fill="#ffffff"
              d="m53.685696 137.49803l0 0c-5.044491 0 -9.133858 -4.0893707 -9.133858 -9.133865l0 0c0 -2.4224396 0.9623146 -4.745674 2.6752434 -6.458603c1.7129326 -1.7129364 4.0361633 -2.6752472 6.4586143 -2.6752472l0 0c5.044491 0 9.133858 4.089363 9.133858 9.13385l0 0c0 5.0444946 -4.089367 9.133865 -9.133858 9.133865z"
              fill-rule="evenodd"/>
        <path stroke="#000000" stroke-width="1.0" stroke-linejoin="round" stroke-linecap="butt"
              d="m53.685696 137.49803l0 0c-5.044491 0 -9.133858 -4.0893707 -9.133858 -9.133865l0 0c0 -2.4224396 0.9623146 -4.745674 2.6752434 -6.458603c1.7129326 -1.7129364 4.0361633 -2.6752472 6.4586143 -2.6752472l0 0c5.044491 0 9.133858 4.089363 9.133858 9.13385l0 0c0 5.0444946 -4.089367 9.133865 -9.133858 9.133865z"
              fill-rule="evenodd"/>
        <path fill="#ffffff"
              d="m53.685696 162.98228l0 0c-5.044491 0 -9.133858 -4.0893707 -9.133858 -9.133865l0 0c0 -2.4224396 0.9623146 -4.745682 2.6752434 -6.458603c1.7129326 -1.7129364 4.0361633 -2.6752472 6.4586143 -2.6752472l0 0c5.044491 0 9.133858 4.0893707 9.133858 9.13385l0 0c0 5.0444946 -4.089367 9.133865 -9.133858 9.133865z"
              fill-rule="evenodd"/>
        <path stroke="#000000" stroke-width="1.0" stroke-linejoin="round" stroke-linecap="butt"
              d="m53.685696 162.98228l0 0c-5.044491 0 -9.133858 -4.0893707 -9.133858 -9.133865l0 0c0 -2.4224396 0.9623146 -4.745682 2.6752434 -6.458603c1.7129326 -1.7129364 4.0361633 -2.6752472 6.4586143 -2.6752472l0 0c5.044491 0 9.133858 4.0893707 9.133858 9.13385l0 0c0 5.0444946 -4.089367 9.133865 -9.133858 9.133865z"
              fill-rule="evenodd"/>
        <path fill="#ffffff"
              d="m53.687008 188.46391l0 0c-5.044491 0 -9.133858 -4.0893707 -9.133858 -9.133865l0 0c0 -2.4224396 0.9623146 -4.745682 2.6752434 -6.458603c1.7129326 -1.7129364 4.0361633 -2.6752472 6.4586143 -2.6752472l0 0c5.044491 0 9.133858 4.0893707 9.133858 9.13385l0 0c0 5.0444946 -4.089367 9.133865 -9.133858 9.133865z"
              fill-rule="evenodd"/>
        <path stroke="#000000" stroke-width="1.0" stroke-linejoin="round" stroke-linecap="butt"
              d="m53.687008 188.46391l0 0c-5.044491 0 -9.133858 -4.0893707 -9.133858 -9.133865l0 0c0 -2.4224396 0.9623146 -4.745682 2.6752434 -6.458603c1.7129326 -1.7129364 4.0361633 -2.6752472 6.4586143 -2.6752472l0 0c5.044491 0 9.133858 4.0893707 9.133858 9.13385l0 0c0 5.0444946 -4.089367 9.133865 -9.133858 9.133865z"
              fill-rule="evenodd"/>
        <path fill="#ffffff"
              d="m53.685696 213.94817l0 0c-5.044491 0 -9.133858 -4.0893707 -9.133858 -9.133865l0 0c0 -2.4224396 0.9623146 -4.745682 2.6752434 -6.458603c1.7129326 -1.7129364 4.0361633 -2.6752472 6.4586143 -2.6752472l0 0c5.044491 0 9.133858 4.0893707 9.133858 9.13385l0 0c0 5.0444946 -4.089367 9.133865 -9.133858 9.133865z"
              fill-rule="evenodd"/>
        <path stroke="#000000" stroke-width="1.0" stroke-linejoin="round" stroke-linecap="butt"
              d="m53.685696 213.94817l0 0c-5.044491 0 -9.133858 -4.0893707 -9.133858 -9.133865l0 0c0 -2.4224396 0.9623146 -4.745682 2.6752434 -6.458603c1.7129326 -1.7129364 4.0361633 -2.6752472 6.4586143 -2.6752472l0 0c5.044491 0 9.133858 4.0893707 9.133858 9.13385l0 0c0 5.0444946 -4.089367 9.133865 -9.133858 9.133865z"
              fill-rule="evenodd"/>
        <path fill="#ffffff"
              d="m53.687008 239.4298l0 0c-5.044491 0 -9.133858 -4.0893707 -9.133858 -9.133865l0 0c0 -2.4224396 0.9623146 -4.745682 2.6752434 -6.458603c1.7129326 -1.7129364 4.0361633 -2.6752472 6.4586143 -2.6752472l0 0c5.044491 0 9.133858 4.0893555 9.133858 9.13385l0 0c0 5.0444946 -4.089367 9.133865 -9.133858 9.133865z"
              fill-rule="evenodd"/>
        <path stroke="#000000" stroke-width="1.0" stroke-linejoin="round" stroke-linecap="butt"
              d="m53.687008 239.4298l0 0c-5.044491 0 -9.133858 -4.0893707 -9.133858 -9.133865l0 0c0 -2.4224396 0.9623146 -4.745682 2.6752434 -6.458603c1.7129326 -1.7129364 4.0361633 -2.6752472 6.4586143 -2.6752472l0 0c5.044491 0 9.133858 4.0893555 9.133858 9.13385l0 0c0 5.0444946 -4.089367 9.133865 -9.133858 9.133865z"
              fill-rule="evenodd"/>
    </g>
</svg>
