<svg version="1.1" viewBox="0.0 0.0 960.0 720.0" fill="none" stroke="none" stroke-linecap="square" stroke-miterlimit="10" xmlns:xlink="http://www.w3.org/1999/xlink" xmlns="http://www.w3.org/2000/svg"><clipPath id="p.0"><path d="m0 0l960.0 0l0 720.0l-960.0 0l0 -720.0z" clip-rule="nonzero"/></clipPath><g clip-path="url(#p.0)"><path fill="#000000" fill-opacity="0.0" d="m0 0l960.0 0l0 720.0l-960.0 0z" fill-rule="evenodd"/><path fill="#000000" fill-opacity="0.0" d="m262.97113 174.10498l522.3307 0l0 60.944885l-522.3307 0z" fill-rule="evenodd"/><path fill="#000000" d="m469.39633 218.52756l214.3281 134.4672l-214.3281 134.4672z" fill-rule="evenodd"/><path stroke="#000000" stroke-width="1.0" stroke-linejoin="round" stroke-linecap="butt" d="m469.39633 218.52756l214.3281 134.4672l-214.3281 134.4672z" fill-rule="evenodd"/><path fill="#ffffff" d="m571.4706 306.1712l0 0c2.6553955 -4.288849 8.284851 -5.612976 12.573669 -2.95755l0 0c2.0595703 1.275177 3.5281982 3.3162842 4.0828857 5.6743164c0.55462646 2.3580017 0.14984131 4.8397827 -1.1253662 6.899353l0 0c-2.6553955 4.2888184 -8.284851 5.6129456 -12.573669 2.95755l0 0c-4.2888184 -2.655426 -5.612915 -8.284851 -2.9575195 -12.573669z" fill-rule="evenodd"/><path stroke="#000000" stroke-width="1.0" stroke-linejoin="round" stroke-linecap="butt" d="m571.4706 306.1712l0 0c2.6553955 -4.288849 8.284851 -5.612976 12.573669 -2.95755l0 0c2.0595703 1.275177 3.5281982 3.3162842 4.0828857 5.6743164c0.55462646 2.3580017 0.14984131 4.8397827 -1.1253662 6.899353l0 0c-2.6553955 4.2888184 -8.284851 5.6129456 -12.573669 2.95755l0 0c-4.2888184 -2.655426 -5.612915 -8.284851 -2.9575195 -12.573669z" fill-rule="evenodd"/><path fill="#ffffff" d="m593.13434 319.58585l0 0c2.6554565 -4.288849 8.284851 -5.612976 12.573669 -2.95755l0 0c2.0595703 1.275177 3.5282593 3.3162842 4.0828857 5.6743164c0.55462646 2.3580017 0.14984131 4.8397827 -1.1253052 6.899353l0 0c-2.6554565 4.2888184 -8.284851 5.612976 -12.573669 2.95755l0 0c-4.2888184 -2.655426 -5.612976 -8.284851 -2.9575806 -12.573669z" fill-rule="evenodd"/><path stroke="#000000" stroke-width="1.0" stroke-linejoin="round" stroke-linecap="butt" d="m593.13434 319.58585l0 0c2.6554565 -4.288849 8.284851 -5.612976 12.573669 -2.95755l0 0c2.0595703 1.275177 3.5282593 3.3162842 4.0828857 5.6743164c0.55462646 2.3580017 0.14984131 4.8397827 -1.1253052 6.899353l0 0c-2.6554565 4.2888184 -8.284851 5.612976 -12.573669 2.95755l0 0c-4.2888184 -2.655426 -5.612976 -8.284851 -2.9575806 -12.573669z" fill-rule="evenodd"/><path fill="#ffffff" d="m614.80066 332.99893l0 0c2.6553955 -4.2888184 8.284851 -5.6129456 12.573669 -2.9575195l0 0c2.0595703 1.275177 3.5281982 3.3162842 4.0828247 5.674286c0.5546875 2.3580322 0.14990234 4.839813 -1.1253052 6.8993835l0 0c-2.6553955 4.2888184 -8.284851 5.6129456 -12.573669 2.9575195l0 0c-4.2888184 -2.6553955 -5.612976 -8.284821 -2.9575195 -12.573669z" fill-rule="evenodd"/><path stroke="#000000" stroke-width="1.0" stroke-linejoin="round" stroke-linecap="butt" d="m614.80066 332.99893l0 0c2.6553955 -4.2888184 8.284851 -5.6129456 12.573669 -2.9575195l0 0c2.0595703 1.275177 3.5281982 3.3162842 4.0828247 5.674286c0.5546875 2.3580322 0.14990234 4.839813 -1.1253052 6.8993835l0 0c-2.6553955 4.2888184 -8.284851 5.6129456 -12.573669 2.9575195l0 0c-4.2888184 -2.6553955 -5.612976 -8.284821 -2.9575195 -12.573669z" fill-rule="evenodd"/><path fill="#ffffff" d="m636.4667 346.41498l0 0c2.6553955 -4.288849 8.284851 -5.612976 12.573669 -2.95755l0 0c2.0595703 1.275177 3.5281982 3.3162842 4.0828857 5.6743164c0.55462646 2.3580017 0.14984131 4.8397827 -1.1253662 6.899353l0 0c-2.6553955 4.2888184 -8.284851 5.6129456 -12.573669 2.95755l0 0c-4.2888184 -2.655426 -5.612915 -8.284851 -2.9575195 -12.573669z" fill-rule="evenodd"/><path stroke="#000000" stroke-width="1.0" stroke-linejoin="round" stroke-linecap="butt" d="m636.4667 346.41498l0 0c2.6553955 -4.288849 8.284851 -5.612976 12.573669 -2.95755l0 0c2.0595703 1.275177 3.5281982 3.3162842 4.0828857 5.6743164c0.55462646 2.3580017 0.14984131 4.8397827 -1.1253662 6.899353l0 0c-2.6553955 4.2888184 -8.284851 5.6129456 -12.573669 2.95755l0 0c-4.2888184 -2.655426 -5.612915 -8.284851 -2.9575195 -12.573669z" fill-rule="evenodd"/><path fill="#ffffff" d="m549.8039 292.7563l0 0c2.6553955 -4.2888184 8.28479 -5.612976 12.573669 -2.95755l0 0c2.0595093 1.275177 3.5281982 3.3162842 4.0828247 5.6743164c0.55462646 2.3580017 0.14984131 4.8397827 -1.1253052 6.899353l0 0c-2.6553955 4.2888184 -8.284851 5.612976 -12.573669 2.95755l0 0c-4.2888184 -2.655426 -5.612976 -8.284851 -2.9575195 -12.573669z" fill-rule="evenodd"/><path stroke="#000000" stroke-width="1.0" stroke-linejoin="round" stroke-linecap="butt" d="m549.8039 292.7563l0 0c2.6553955 -4.2888184 8.28479 -5.612976 12.573669 -2.95755l0 0c2.0595093 1.275177 3.5281982 3.3162842 4.0828247 5.6743164c0.55462646 2.3580017 0.14984131 4.8397827 -1.1253052 6.899353l0 0c-2.6553955 4.2888184 -8.284851 5.612976 -12.573669 2.95755l0 0c-4.2888184 -2.655426 -5.612976 -8.284851 -2.9575195 -12.573669z" fill-rule="evenodd"/><path fill="#ffffff" d="m528.1387 279.34387l0 0c2.6554565 -4.2888184 8.284851 -5.612976 12.573669 -2.95755l0 0c2.0595703 1.275177 3.5282593 3.3162842 4.0828857 5.6743164c0.55462646 2.3580017 0.14984131 4.8397827 -1.1253052 6.899353l0 0c-2.6554565 4.2888184 -8.284851 5.612976 -12.573669 2.95755l0 0c-4.2888184 -2.655426 -5.612976 -8.284851 -2.9575806 -12.573669z" fill-rule="evenodd"/><path stroke="#000000" stroke-width="1.0" stroke-linejoin="round" stroke-linecap="butt" d="m528.1387 279.34387l0 0c2.6554565 -4.2888184 8.284851 -5.612976 12.573669 -2.95755l0 0c2.0595703 1.275177 3.5282593 3.3162842 4.0828857 5.6743164c0.55462646 2.3580017 0.14984131 4.8397827 -1.1253052 6.899353l0 0c-2.6554565 4.2888184 -8.284851 5.612976 -12.573669 2.95755l0 0c-4.2888184 -2.655426 -5.612976 -8.284851 -2.9575806 -12.573669z" fill-rule="evenodd"/><path fill="#ffffff" d="m506.4727 265.92786l0 0c2.6553955 -4.288849 8.284821 -5.612976 12.573639 -2.95755l0 0c2.0595703 1.275177 3.5282593 3.3162842 4.0828857 5.6743164c0.55462646 2.3580017 0.14984131 4.8397827 -1.1253052 6.899353l0 0c-2.6554565 4.2888184 -8.284851 5.6129456 -12.5737 2.95755l0 0c-4.2888184 -2.655426 -5.6129456 -8.284851 -2.9575195 -12.573669z" fill-rule="evenodd"/><path stroke="#000000" stroke-width="1.0" stroke-linejoin="round" stroke-linecap="butt" d="m506.4727 265.92786l0 0c2.6553955 -4.288849 8.284821 -5.612976 12.573639 -2.95755l0 0c2.0595703 1.275177 3.5282593 3.3162842 4.0828857 5.6743164c0.55462646 2.3580017 0.14984131 4.8397827 -1.1253052 6.899353l0 0c-2.6554565 4.2888184 -8.284851 5.6129456 -12.5737 2.95755l0 0c-4.2888184 -2.655426 -5.6129456 -8.284851 -2.9575195 -12.573669z" fill-rule="evenodd"/><path fill="#ffffff" d="m484.8075 252.51543l0 0c2.655426 -4.2888184 8.284851 -5.612961 12.573669 -2.9575348l0 0c2.0595703 1.275177 3.5282288 3.3162842 4.0828857 5.674301c0.55462646 2.358017 0.14984131 4.839798 -1.1253357 6.8993683l0 0c-2.655426 4.2888184 -8.284851 5.6129456 -12.573669 2.95755l0 0c-4.2888184 -2.655426 -5.612976 -8.284851 -2.95755 -12.573685z" fill-rule="evenodd"/><path stroke="#000000" stroke-width="1.0" stroke-linejoin="round" stroke-linecap="butt" d="m484.8075 252.51543l0 0c2.655426 -4.2888184 8.284851 -5.612961 12.573669 -2.9575348l0 0c2.0595703 1.275177 3.5282288 3.3162842 4.0828857 5.674301c0.55462646 2.358017 0.14984131 4.839798 -1.1253357 6.8993683l0 0c-2.655426 4.2888184 -8.284851 5.6129456 -12.573669 2.95755l0 0c-4.2888184 -2.655426 -5.612976 -8.284851 -2.95755 -12.573685z" fill-rule="evenodd"/><path fill="#ffffff" d="m571.45105 397.85272l0 0c-2.6972656 -4.2631226 -1.4279785 -9.905609 2.835144 -12.602905l0 0c2.0472412 -1.2952881 4.5251465 -1.7242737 6.888611 -1.1925659c2.3635254 0.53167725 4.4190063 1.9804993 5.7142944 4.02771l0 0c2.6972656 4.263092 1.4279175 9.905609 -2.835144 12.602905l0 0c-4.2631226 2.6972961 -9.90564 1.427948 -12.602905 -2.835144z" fill-rule="evenodd"/><path stroke="#000000" stroke-width="1.0" stroke-linejoin="round" stroke-linecap="butt" d="m571.45105 397.85272l0 0c-2.6972656 -4.2631226 -1.4279785 -9.905609 2.835144 -12.602905l0 0c2.0472412 -1.2952881 4.5251465 -1.7242737 6.888611 -1.1925659c2.3635254 0.53167725 4.4190063 1.9804993 5.7142944 4.02771l0 0c2.6972656 4.263092 1.4279175 9.905609 -2.835144 12.602905l0 0c-4.2631226 2.6972961 -9.90564 1.427948 -12.602905 -2.835144z" fill-rule="evenodd"/><path fill="#ffffff" d="m592.98627 384.2288l0 0c-2.6972656 -4.263092 -1.4279175 -9.905609 2.835144 -12.602905l0 0c2.0472412 -1.2952576 4.5251465 -1.7242432 6.888611 -1.1925659c2.3635254 0.53170776 4.4190063 1.9805298 5.7142944 4.0277405l0 0c2.6972656 4.263092 1.4279785 9.905609 -2.835144 12.602875l0 0c-4.2631226 2.6972961 -9.90564 1.427948 -12.602905 -2.835144z" fill-rule="evenodd"/><path stroke="#000000" stroke-width="1.0" stroke-linejoin="round" stroke-linecap="butt" d="m592.98627 384.2288l0 0c-2.6972656 -4.263092 -1.4279175 -9.905609 2.835144 -12.602905l0 0c2.0472412 -1.2952576 4.5251465 -1.7242432 6.888611 -1.1925659c2.3635254 0.53170776 4.4190063 1.9805298 5.7142944 4.0277405l0 0c2.6972656 4.263092 1.4279785 9.905609 -2.835144 12.602875l0 0c-4.2631226 2.6972961 -9.90564 1.427948 -12.602905 -2.835144z" fill-rule="evenodd"/><path fill="#ffffff" d="m614.5212 370.60196l0 0c-2.6972656 -4.263092 -1.4279175 -9.905609 2.835144 -12.602905l0 0c2.0472412 -1.2952881 4.5251465 -1.7242432 6.888672 -1.1925659c2.3634644 0.53170776 4.4189453 1.9804993 5.7142334 4.02771l0 0c2.6973267 4.2631226 1.4279785 9.905609 -2.835144 12.602905l0 0c-4.2630615 2.6972961 -9.905579 1.427948 -12.602905 -2.835144z" fill-rule="evenodd"/><path stroke="#000000" stroke-width="1.0" stroke-linejoin="round" stroke-linecap="butt" d="m614.5212 370.60196l0 0c-2.6972656 -4.263092 -1.4279175 -9.905609 2.835144 -12.602905l0 0c2.0472412 -1.2952881 4.5251465 -1.7242432 6.888672 -1.1925659c2.3634644 0.53170776 4.4189453 1.9804993 5.7142334 4.02771l0 0c2.6973267 4.2631226 1.4279785 9.905609 -2.835144 12.602905l0 0c-4.2630615 2.6972961 -9.905579 1.427948 -12.602905 -2.835144z" fill-rule="evenodd"/><path fill="#ffffff" d="m636.05865 356.97662l0 0c-2.6973267 -4.263092 -1.4279785 -9.905609 2.835144 -12.602875l0 0c2.0471802 -1.2952881 4.5251465 -1.7242737 6.888611 -1.1925659c2.3635254 0.53167725 4.4190063 1.9804993 5.7142944 4.02771l0 0c2.6972656 4.263092 1.4279175 9.905609 -2.835144 12.602905l0 0c-4.2631226 2.6972656 -9.90564 1.427948 -12.602905 -2.8351746z" fill-rule="evenodd"/><path stroke="#000000" stroke-width="1.0" stroke-linejoin="round" stroke-linecap="butt" d="m636.05865 356.97662l0 0c-2.6973267 -4.263092 -1.4279785 -9.905609 2.835144 -12.602875l0 0c2.0471802 -1.2952881 4.5251465 -1.7242737 6.888611 -1.1925659c2.3635254 0.53167725 4.4190063 1.9804993 5.7142944 4.02771l0 0c2.6972656 4.263092 1.4279175 9.905609 -2.835144 12.602905l0 0c-4.2631226 2.6972656 -9.90564 1.427948 -12.602905 -2.8351746z" fill-rule="evenodd"/><path fill="#ffffff" d="m549.9143 411.47916l0 0c-2.6972656 -4.2631226 -1.4279785 -9.905609 2.835144 -12.602905l0 0c2.0472412 -1.2952881 4.5251465 -1.7242737 6.888611 -1.1925659c2.3635254 0.53167725 4.4190063 1.9804993 5.7142944 4.02771l0 0c2.6972656 4.263092 1.4279175 9.905609 -2.835144 12.602905l0 0c-4.2631226 2.6972656 -9.90564 1.427948 -12.602905 -2.835144z" fill-rule="evenodd"/><path stroke="#000000" stroke-width="1.0" stroke-linejoin="round" stroke-linecap="butt" d="m549.9143 411.47916l0 0c-2.6972656 -4.2631226 -1.4279785 -9.905609 2.835144 -12.602905l0 0c2.0472412 -1.2952881 4.5251465 -1.7242737 6.888611 -1.1925659c2.3635254 0.53167725 4.4190063 1.9804993 5.7142944 4.02771l0 0c2.6972656 4.263092 1.4279175 9.905609 -2.835144 12.602905l0 0c-4.2631226 2.6972656 -9.90564 1.427948 -12.602905 -2.835144z" fill-rule="evenodd"/><path fill="#ffffff" d="m528.3805 425.1053l0 0c-2.6973267 -4.2631226 -1.4279785 -9.905609 2.835144 -12.602905l0 0c2.0471802 -1.2952881 4.5251465 -1.7242737 6.888611 -1.1925659c2.3635254 0.53167725 4.4190063 1.9804993 5.7142944 4.02771l0 0c2.6972656 4.263092 1.4279175 9.905609 -2.835144 12.602905l0 0c-4.2631226 2.6972961 -9.90564 1.427948 -12.602905 -2.835144z" fill-rule="evenodd"/><path stroke="#000000" stroke-width="1.0" stroke-linejoin="round" stroke-linecap="butt" d="m528.3805 425.1053l0 0c-2.6973267 -4.2631226 -1.4279785 -9.905609 2.835144 -12.602905l0 0c2.0471802 -1.2952881 4.5251465 -1.7242737 6.888611 -1.1925659c2.3635254 0.53167725 4.4190063 1.9804993 5.7142944 4.02771l0 0c2.6972656 4.263092 1.4279175 9.905609 -2.835144 12.602905l0 0c-4.2631226 2.6972961 -9.90564 1.427948 -12.602905 -2.835144z" fill-rule="evenodd"/><path fill="#ffffff" d="m506.84305 438.7306l0 0c-2.6972961 -4.263092 -1.427948 -9.905609 2.835144 -12.602905l0 0c2.0472107 -1.2952576 4.525116 -1.7242432 6.8886414 -1.1925659c2.3634644 0.53170776 4.4189453 1.9805298 5.7142334 4.0277405l0 0c2.6973267 4.263092 1.4279785 9.905609 -2.835144 12.602875l0 0c-4.2630615 2.6972961 -9.905579 1.427948 -12.602875 -2.835144z" fill-rule="evenodd"/><path stroke="#000000" stroke-width="1.0" stroke-linejoin="round" stroke-linecap="butt" d="m506.84305 438.7306l0 0c-2.6972961 -4.263092 -1.427948 -9.905609 2.835144 -12.602905l0 0c2.0472107 -1.2952576 4.525116 -1.7242432 6.8886414 -1.1925659c2.3634644 0.53170776 4.4189453 1.9805298 5.7142334 4.0277405l0 0c2.6973267 4.263092 1.4279785 9.905609 -2.835144 12.602875l0 0c-4.2630615 2.6972961 -9.905579 1.427948 -12.602875 -2.835144z" fill-rule="evenodd"/><path fill="#ffffff" d="m485.3092 452.35672l0 0c-2.6972656 -4.263092 -1.427948 -9.905609 2.8351746 -12.602875l0 0c2.0472107 -1.2952881 4.525116 -1.7242737 6.888611 -1.1925659c2.3634949 0.53167725 4.4190063 1.9804993 5.714264 4.02771l0 0c2.6972961 4.263092 1.427948 9.905609 -2.835144 12.602905l0 0c-4.263092 2.6972656 -9.905609 1.427948 -12.602905 -2.8351746z" fill-rule="evenodd"/><path stroke="#000000" stroke-width="1.0" stroke-linejoin="round" stroke-linecap="butt" d="m485.3092 452.35672l0 0c-2.6972656 -4.263092 -1.427948 -9.905609 2.8351746 -12.602875l0 0c2.0472107 -1.2952881 4.525116 -1.7242737 6.888611 -1.1925659c2.3634949 0.53167725 4.4190063 1.9804993 5.714264 4.02771l0 0c2.6972961 4.263092 1.427948 9.905609 -2.835144 12.602905l0 0c-4.263092 2.6972656 -9.905609 1.427948 -12.602905 -2.8351746z" fill-rule="evenodd"/><path fill="#ffffff" d="m493.28412 355.21063l0 0c-5.0444946 0 -9.13385 -4.0893555 -9.13385 -9.13385l0 0c0 -2.4224548 0.9623108 -4.745697 2.675232 -6.458618c1.7129517 -1.7129211 4.0361633 -2.6752625 6.458618 -2.6752625l0 0c5.0444946 0 9.13385 4.089386 9.13385 9.133881l0 0c0 5.0444946 -4.0893555 9.13385 -9.13385 9.13385z" fill-rule="evenodd"/><path stroke="#000000" stroke-width="1.0" stroke-linejoin="round" stroke-linecap="butt" d="m493.28412 355.21063l0 0c-5.0444946 0 -9.13385 -4.0893555 -9.13385 -9.13385l0 0c0 -2.4224548 0.9623108 -4.745697 2.675232 -6.458618c1.7129517 -1.7129211 4.0361633 -2.6752625 6.458618 -2.6752625l0 0c5.0444946 0 9.13385 4.089386 9.13385 9.133881l0 0c0 5.0444946 -4.0893555 9.13385 -9.13385 9.13385z" fill-rule="evenodd"/><path fill="#ffffff" d="m493.28412 380.6949l0 0c-5.0444946 0 -9.13385 -4.089386 -9.13385 -9.13385l0 0c0 -2.4224548 0.9623108 -4.745697 2.675232 -6.458618c1.7129517 -1.7129517 4.0361633 -2.6752625 6.458618 -2.6752625l0 0c5.0444946 0 9.13385 4.089386 9.13385 9.133881l0 0c0 5.044464 -4.0893555 9.13385 -9.13385 9.13385z" fill-rule="evenodd"/><path stroke="#000000" stroke-width="1.0" stroke-linejoin="round" stroke-linecap="butt" d="m493.28412 380.6949l0 0c-5.0444946 0 -9.13385 -4.089386 -9.13385 -9.13385l0 0c0 -2.4224548 0.9623108 -4.745697 2.675232 -6.458618c1.7129517 -1.7129517 4.0361633 -2.6752625 6.458618 -2.6752625l0 0c5.0444946 0 9.13385 4.089386 9.13385 9.133881l0 0c0 5.044464 -4.0893555 9.13385 -9.13385 9.13385z" fill-rule="evenodd"/><path fill="#ffffff" d="m493.28543 406.1765l0 0c-5.0444946 0 -9.13385 -4.089386 -9.13385 -9.13385l0 0c0 -2.4224548 0.9623108 -4.745697 2.675232 -6.458618c1.7129517 -1.7129517 4.0361633 -2.6752625 6.458618 -2.6752625l0 0c5.0444946 0 9.13385 4.089386 9.13385 9.133881l0 0c0 5.044464 -4.0893555 9.13385 -9.13385 9.13385z" fill-rule="evenodd"/><path stroke="#000000" stroke-width="1.0" stroke-linejoin="round" stroke-linecap="butt" d="m493.28543 406.1765l0 0c-5.0444946 0 -9.13385 -4.089386 -9.13385 -9.13385l0 0c0 -2.4224548 0.9623108 -4.745697 2.675232 -6.458618c1.7129517 -1.7129517 4.0361633 -2.6752625 6.458618 -2.6752625l0 0c5.0444946 0 9.13385 4.089386 9.13385 9.133881l0 0c0 5.044464 -4.0893555 9.13385 -9.13385 9.13385z" fill-rule="evenodd"/><path fill="#ffffff" d="m493.28412 431.66077l0 0c-5.0444946 0 -9.13385 -4.089386 -9.13385 -9.13385l0 0c0 -2.4224548 0.9623108 -4.745697 2.675232 -6.458618c1.7129517 -1.7129517 4.0361633 -2.6752625 6.458618 -2.6752625l0 0c5.0444946 0 9.13385 4.089386 9.13385 9.133881l0 0c0 5.044464 -4.0893555 9.13385 -9.13385 9.13385z" fill-rule="evenodd"/><path stroke="#000000" stroke-width="1.0" stroke-linejoin="round" stroke-linecap="butt" d="m493.28412 431.66077l0 0c-5.0444946 0 -9.13385 -4.089386 -9.13385 -9.13385l0 0c0 -2.4224548 0.9623108 -4.745697 2.675232 -6.458618c1.7129517 -1.7129517 4.0361633 -2.6752625 6.458618 -2.6752625l0 0c5.0444946 0 9.13385 4.089386 9.13385 9.133881l0 0c0 5.044464 -4.0893555 9.13385 -9.13385 9.13385z" fill-rule="evenodd"/><path fill="#ffffff" d="m493.28543 457.1424l0 0c-5.0444946 0 -9.13385 -4.089386 -9.13385 -9.13385l0 0c0 -2.4224548 0.9623108 -4.745697 2.675232 -6.458618c1.7129517 -1.7129517 4.0361633 -2.6752625 6.458618 -2.6752625l0 0c5.0444946 0 9.13385 4.089386 9.13385 9.133881l0 0c0 5.044464 -4.0893555 9.13385 -9.13385 9.13385z" fill-rule="evenodd"/><path stroke="#000000" stroke-width="1.0" stroke-linejoin="round" stroke-linecap="butt" d="m493.28543 457.1424l0 0c-5.0444946 0 -9.13385 -4.089386 -9.13385 -9.13385l0 0c0 -2.4224548 0.9623108 -4.745697 2.675232 -6.458618c1.7129517 -1.7129517 4.0361633 -2.6752625 6.458618 -2.6752625l0 0c5.0444946 0 9.13385 4.089386 9.13385 9.133881l0 0c0 5.044464 -4.0893555 9.13385 -9.13385 9.13385z" fill-rule="evenodd"/></g></svg>